# xmcd CD database file
#
# Track frame offsets:
#	150
#	12313
#	31785
#	44119
#	60690
#	75237
#	88558
#	105255
#	123379
#	140657
#	160502
#	174793
#	189846
#	212479
#
# Disc length: 2982 seconds
#
# Revision: 1
# Processed by: cddbd v1.5.2PL0 Copyright (c) Steve Scherf et al.
# Submitted via: CDex 1.70beta2
#
DISCID=a10ba40e
DTITLE=Jim Brickman - The Disney Songbook
DYEAR=2005
DGENRE=New Age
TTITLE0=Beauty And The Beast
TTITLE1=Mary Poppins Medley
TTITLE2=Cruella De Vil
TTITLE3=Beautiful (f Wayne Brady)
TTITLE4=Reflection
TTITLE5=When I See An Elephant Fly (f Josh Gracin)
TTITLE6=Zip-A-Dee-Doo-Dah
TTITLE7=Baby Mine (f Kassie DePaiva)
TTITLE8=Can You Feel The Love Tonight
TTITLE9=A Dream Is A Wish Your Heart Makes (f Kimberly Locke)
TTITLE10=Someday My Prince Will Come
TTITLE11=I'm Amazed (f Lila McCann)
TTITLE12=When You Wish Upon A Star
TTITLE13=Beautiful (Video)
EXTD=YEAR: 2005
EXTT0=
EXTT1=
EXTT2=
EXTT3=
EXTT4=
EXTT5=
EXTT6=
EXTT7=
EXTT8=
EXTT9=
EXTT10=
EXTT11=
EXTT12=
EXTT13=
PLAYORDER=
